<svg width="512" height="512" viewBox="0 0 512 512" fill="none" xmlns="http://www.w3.org/2000/svg">
<path opacity="0.5" fill-rule="evenodd" clip-rule="evenodd" d="M241.468 507.254L237.844 502.508L241.672 499.269C243.777 497.487 245.837 496.023 246.25 496.015C247.599 495.988 247.036 493.951 245.52 493.369C244.694 493.052 242.308 494.172 240.126 495.901C237.973 497.605 235.967 499 235.668 499C235.369 499 233.67 496.975 231.893 494.5C228.792 490.182 226.735 489.002 225.576 490.878C225.277 491.361 226.678 493.91 228.689 496.544L232.346 501.333L228.423 504.651C226.265 506.477 224.163 507.977 223.75 507.985C222.401 508.012 222.964 510.049 224.48 510.631C225.314 510.951 227.78 509.758 230.125 507.901L234.289 504.603L237.395 508.301C239.317 510.591 241.375 512 242.796 512C245.004 512 244.953 511.818 241.468 507.254ZM392.925 502.75C404.089 474.051 406.623 466.885 405.789 466.37C405.25 466.036 404.216 466.379 403.492 467.132C402.105 468.573 389 501.731 389 503.797C389 505.897 392.013 505.093 392.925 502.75ZM267.753 495.75C268.301 495.062 269.539 492.925 270.502 491C271.466 489.075 272.432 487.303 272.648 487.062C272.865 486.822 275.018 488.564 277.434 490.935L281.825 495.245L284.485 489.623C285.948 486.53 287.474 484 287.876 484C288.279 484 290.134 485.575 292 487.5C295.827 491.449 297.586 491.879 298.474 489.082C298.809 488.028 300.023 485.969 301.173 484.508L303.263 481.851L306.992 485.492L310.722 489.134L314.753 484.897L318.785 480.66L323.092 484.347C327.054 487.738 329.224 488.586 329.101 486.695C329.019 485.429 319.971 478 318.512 478C317.76 478 315.742 479.687 314.027 481.75L310.908 485.5L307.294 481.59L303.681 477.681L300.479 481.174C298.718 483.096 297.062 485.305 296.799 486.084C296.451 487.115 295.177 486.47 292.12 483.716C289.809 481.635 287.493 480.196 286.971 480.518C286.45 480.84 284.832 483.137 283.376 485.622L280.728 490.14L277.072 486.57C275.061 484.607 272.907 483 272.286 483C271.24 483 265 494.27 265 496.16C265 497.414 266.616 497.174 267.753 495.75ZM362.386 489.25C364.256 482.967 365.927 473.54 365.276 472.954C363.996 471.802 350.107 468.745 348.666 469.298C347.47 469.757 343.299 485.634 344.151 486.484C344.5 486.831 360.375 491 361.349 491C361.633 491 362.1 490.212 362.386 489.25ZM114.925 486.699C115.386 485.49 116.967 481.639 118.439 478.142C119.912 474.645 120.926 471.592 120.693 471.359C120.459 471.126 116.601 469.411 112.118 467.549L103.967 464.163L102.647 466.831C99.379 473.435 96.789 481.181 97.61 481.899C98.099 482.328 102.007 484.078 106.294 485.789L114.088 488.899L114.925 486.699ZM168.395 479.304C169.282 474.521 169.669 470.297 169.254 469.918C168.438 469.171 156.6 467 153.341 467C151.617 467 151.135 468.191 149.798 475.75C148.947 480.562 148.354 484.622 148.48 484.771C148.705 485.038 164.892 487.996 166.141 487.999C166.494 487.999 167.508 484.087 168.395 479.304ZM353.5 485.94C351.3 485.363 348.971 484.718 348.325 484.506C347.436 484.214 347.469 482.91 348.461 479.149C350.349 471.992 350.332 472.005 356.106 473.528C358.912 474.268 361.458 475.124 361.764 475.431C362.736 476.403 359.909 487 358.678 486.994C358.03 486.991 355.7 486.517 353.5 485.94ZM152.657 482.045C152.193 481.588 152.343 478.663 152.99 475.546C154.297 469.252 153.198 469.68 163.115 471.605C166.229 472.209 166.23 472.21 165.555 477.297C165.184 480.096 164.624 482.799 164.312 483.304C163.661 484.357 153.936 483.306 152.657 482.045ZM105.514 482.006C100.456 479.838 100.469 479.908 103.672 472.242C104.851 469.42 105.507 468.91 107.361 469.376C111.426 470.396 117.145 473.07 116.819 473.797C116.644 474.189 115.651 476.645 114.614 479.255C113.577 481.865 112.152 484 111.447 484C110.742 484 108.072 483.103 105.514 482.006ZM82.341 480.257C82.602 479.835 80.649 477.02 78.002 474.002L73.188 468.514L69.153 471.757C66.933 473.541 64.65 475 64.079 475C63.508 475 62.122 473.2 61 471C59.878 468.8 58.648 467 58.268 467C57.887 467 55.7 468.841 53.408 471.091L49.24 475.181L46.501 471.591C42.958 466.945 40.646 467.038 37.24 471.962C35.733 474.141 34.204 475.941 33.842 475.962C33.48 475.983 31.905 473.976 30.342 471.502C28.779 469.028 27.168 467.003 26.761 467.002C25.421 466.999 17.057 479.283 17.695 480.316C18.318 481.324 20.525 479.179 24.534 473.668L26.569 470.872L29.847 475.436C33.352 480.318 35.493 481.172 36.474 478.082C37.265 475.591 40.885 471 42.058 471C42.561 471 44.163 472.8 45.619 475C47.075 477.2 48.707 479 49.247 479C49.787 479 51.878 477.141 53.894 474.869L57.561 470.738L60.294 474.869C61.798 477.141 63.313 479 63.661 479C64.009 479 66.21 477.43 68.553 475.51L72.811 472.021L76.06 475.76C79.749 480.007 81.653 481.371 82.341 480.257ZM199.95 472.912L203.236 468.824L206.975 472.476L210.715 476.128L213.107 473.198C214.423 471.586 215.981 469.448 216.57 468.446C217.578 466.73 217.845 466.78 221.164 469.312C226.222 473.17 227.724 472.795 230.408 467.002L232.723 462.004L237.327 466.057L241.931 470.109L244.965 463.416C248.306 456.049 248.455 455.399 247.011 454.507C246.466 454.17 244.9 456.43 243.53 459.529L241.038 465.163L238.18 463.128C236.608 462.009 234.745 460.397 234.039 459.547C231.961 457.043 230.268 457.758 229.579 461.429C229.226 463.314 228.127 465.857 227.137 467.079L225.338 469.3L221.207 465.568C217.323 462.059 215.005 461.589 214.996 464.309C214.994 464.964 214.078 467 212.96 468.834L210.928 472.167L206.831 468.466L202.734 464.765L200.117 468.073C198.678 469.892 197.004 472.041 196.398 472.849C195.465 474.091 194.553 473.751 190.472 470.634C187.01 467.991 185.345 467.258 184.574 468.038C183.807 468.814 183.929 469.367 185 469.972C185.825 470.439 188.249 472.211 190.388 473.91C192.526 475.61 194.813 477 195.47 477C196.127 477 198.144 475.16 199.95 472.912ZM456 466V457H447H438V466V475H447H456V466ZM441.202 465.75L441.5 459.5L446.5 459.38C449.25 459.314 452.062 459.707 452.75 460.253C454.044 461.28 454.511 470.156 453.333 471.333C452.967 471.7 450.02 472 446.786 472H440.905L441.202 465.75ZM289.495 462.008C289.832 461.463 288.733 459.019 287.054 456.578C285.374 454.137 284 451.7 284 451.162C284 450.624 286.024 448.905 288.498 447.342C290.972 445.779 292.997 444.189 292.998 443.809C293.003 442.152 290.718 441.953 288.456 443.414C280.467 448.573 281.603 448.615 278.021 443.033C276.245 440.265 274.415 438 273.955 438C272.163 438 271.901 440.201 273.414 442.544C278.626 450.615 278.611 449.484 273.558 452.96C271.051 454.685 269 456.749 269 457.548C269 459.726 270.669 459.324 275.543 455.971L279.946 452.941L283.223 457.953C286.418 462.838 288.25 464.023 289.495 462.008ZM317.777 458.443C320.579 456.481 320.799 451.033 318.171 448.655C314.218 445.077 307 448.095 307 453.326C307 456.107 310.845 460 313.592 460C314.672 460 316.555 459.299 317.777 458.443ZM486.889 454.44C494.749 447.826 489.367 436 478.496 436C475.626 436 474.04 436.76 471.4 439.4C469.53 441.27 468 443.745 468 444.9C468 447.812 469.633 447.526 471.195 444.34C471.913 442.877 473.688 440.801 475.141 439.726C477.45 438.018 478.234 437.922 481.388 438.963C485.338 440.267 488 443.301 488 446.5C488 451.563 481.084 456.513 478.133 453.562C476.772 452.201 476.851 451.787 478.882 449.626C481.63 446.7 479.909 444.868 476.937 447.557C474.768 449.52 474.37 453.97 476.2 455.8C478.274 457.874 483.616 457.194 486.889 454.44ZM311.573 455.431C309.659 453.516 311.216 449.698 313.71 450.19C316.294 450.699 317.594 453.579 316.07 455.416C314.42 457.403 313.549 457.406 311.573 455.431ZM377.618 451.552C377.926 450.751 377.894 449.637 377.547 449.076C376.634 447.598 342.279 424 341.041 424C340.469 424 340 424.832 340 425.85C340 427.053 342.886 429.638 348.25 433.24C352.787 436.287 361.126 441.981 366.78 445.894C374.519 451.25 377.198 452.649 377.618 451.552ZM145 452.161C145 451.699 143.897 450.818 142.548 450.204C139.391 448.765 136.778 443.733 137.563 440.603C138.341 437.507 141.748 434.335 145.225 433.472C147.428 432.925 148.529 433.375 150.975 435.821C153.979 438.825 155.008 443.259 152.991 444.506C151.437 445.466 148 444.039 148 442.433C148 440.737 146.407 440.533 145.436 442.104C145.06 442.711 145.891 444.346 147.282 445.736C152.318 450.773 157.975 446.113 155.908 438.631C153.312 429.229 141.048 428.206 136.494 437.011C133.816 442.19 134.913 447.62 139.367 451.228C141.601 453.037 145 453.6 145 452.161ZM76.014 449.19C80.447 445.6 77.665 438 71.918 438C69.054 438 65 441.915 65 444.68C65 446.751 69.601 451 71.844 451C72.908 451 74.785 450.185 76.014 449.19ZM46.477 449.037C46.804 448.508 45.935 445.831 44.545 443.088L42.018 438.101L44.231 436.551C45.449 435.698 46.97 435 47.612 435C48.253 435 49.841 434.133 51.139 433.074C53.196 431.396 53.286 431.065 51.84 430.502C50.927 430.146 48.902 430.506 47.34 431.301C41.099 434.478 40.464 434.368 38.47 429.767C35.821 423.656 35.01 422.747 33.399 424.084C32.304 424.993 32.514 426.081 34.568 430.134C35.945 432.851 36.845 435.441 36.569 435.889C36.292 436.337 34.026 437.482 31.533 438.434C27.433 440 25.777 442.145 27.75 443.334C28.163 443.582 30.715 442.712 33.423 441.399C36.131 440.087 38.439 439.122 38.553 439.256C38.666 439.39 39.946 441.862 41.397 444.75C43.974 449.881 45.276 450.98 46.477 449.037ZM70.163 447.122C69.427 446.655 68.977 445.2 69.163 443.887C69.415 442.102 70.127 441.5 71.986 441.5C74.814 441.5 75.882 444.232 73.96 446.548C72.577 448.214 72.019 448.299 70.163 447.122ZM244.048 444.747C256.843 436.124 251.375 416 236.238 416C223.827 416 216.188 428.793 222.266 439.396C226.513 446.802 237.128 449.41 244.048 444.747ZM226.83 440.136C223.135 436.001 222.377 432.525 224.095 427.597C227.288 418.435 238.146 416.218 244.716 423.387C247.302 426.208 248 427.835 248 431.035C248 439.619 243 444.31 234.559 443.646C230.554 443.331 229.091 442.666 226.83 440.136ZM398.351 440.75C403.02 434.105 402.617 434.22 406.825 438.329C411.085 442.489 411.471 442.357 415.708 435.287L417.634 432.074L421.435 435.207C425.979 438.953 427.496 438.431 430.603 432.054L432.705 427.739L436.724 431.369C438.934 433.366 441.175 435 441.703 435C443.241 435 448.139 421.739 447.016 420.616C446.39 419.99 445.157 421.657 443.536 425.323C442.155 428.445 440.765 431 440.446 431C440.127 431 438.209 429.429 436.183 427.509C434.157 425.588 431.988 424.013 431.361 424.009C430.735 424.004 429.933 425.543 429.579 427.429C429.226 429.314 428.127 431.857 427.137 433.079L425.338 435.3L421.062 431.437C416.968 427.738 416.726 427.654 415.393 429.478C414.627 430.525 414 431.762 414 432.226C414 432.691 413.257 434.204 412.349 435.59L410.698 438.111L406.778 434.305L402.859 430.5L400.811 433C399.685 434.375 397.936 436.548 396.925 437.829L395.088 440.158L390.368 436.555C387.198 434.134 385.318 433.282 384.641 433.959C384.087 434.513 383.828 435.115 384.067 435.295C389.173 439.167 394.994 443 395.769 443C396.32 443 397.481 441.987 398.351 440.75ZM209 439.422C209 438.331 192.5 409.063 191.867 409.032C191.176 408.997 184.773 435.106 185.334 435.667C185.683 436.016 206.703 440 208.193 440C208.637 440 209 439.74 209 439.422ZM124.526 436.958C124.88 436.385 120.969 431.998 115.835 427.209C110.701 422.42 103.939 416.096 100.809 413.155C95.79 408.439 93 407.3 93 409.966C93 411.124 121.662 438 122.897 438C123.439 438 124.172 437.531 124.526 436.958ZM194.228 434.416C191.878 434.043 189.738 433.384 189.471 432.953C188.858 431.962 192.167 418 193.014 418C193.713 418 203 434.224 203 435.444C203 435.869 201.988 435.965 200.75 435.656C199.512 435.348 196.578 434.79 194.228 434.416ZM325.282 417.932C326.612 412.655 326.622 411.792 325.362 411.309C324.566 411.003 323.68 410.987 323.394 411.273C322.45 412.217 320.081 422.322 320.605 423.17C322.058 425.52 323.887 423.472 325.282 417.932ZM486.466 418.75C488.943 411.079 488.712 403.838 486.077 406.55C484.981 407.678 482.979 418.156 483.651 419.244C484.379 420.422 486.02 420.133 486.466 418.75ZM51.527 417.956C52.47 416.43 49.426 412.271 46.112 410.558C44.534 409.742 42.932 408.27 42.553 407.287C41.838 405.433 42.276 404.983 49 400.674C53.999 397.47 54.018 394.767 49.071 390.326C43.277 385.125 43.825 382.607 51.609 378.668C55.941 376.475 57.634 372.06 56.103 366.948C54.472 361.507 52.589 361.772 53.422 367.326C54.277 373.032 53.507 374.701 48.943 377.029C44.707 379.19 42 382.445 42 385.377C42 386.44 43.8 389.022 46 391.115C48.2 393.208 49.999 395.5 49.997 396.21C49.996 396.919 47.858 398.625 45.247 400C41.311 402.073 40.448 403.036 40.195 405.638C39.935 408.314 40.56 409.325 44.445 412.508C46.95 414.561 49 416.862 49 417.62C49 419.243 50.601 419.455 51.527 417.956ZM465.32 414.609C466.074 412.644 465.197 411.995 446.61 400.774C431.881 391.882 428.907 390.708 430.299 394.337C430.567 395.036 437.472 399.597 445.643 404.473C453.815 409.35 461.458 413.954 462.629 414.705C464.449 415.873 464.84 415.859 465.32 414.609ZM390 415C390 414.45 388.537 413.993 386.75 413.985C382.379 413.964 381.32 413.129 379.796 408.505C379.02 406.149 377.437 403.976 375.85 403.086C373.374 401.699 372.923 401.785 368.971 404.401C364.621 407.279 363.054 406.895 363.015 402.941C362.993 400.695 360.441 397.477 359.671 398.724C358.709 400.279 361.91 408.752 363.722 409.447C364.638 409.798 366.974 408.904 369.238 407.335C373.773 404.192 375.865 404.789 377.501 409.694C379.171 414.698 380.847 416 385.622 416C388.03 416 390 415.55 390 415ZM164.58 413.855C165.724 413.3 167.437 411.531 168.386 409.923C169.336 408.315 170.763 407 171.557 407C172.35 407 173 406.55 173 406C173 405.45 171.912 405 170.582 405C168.896 405 167.507 406.061 166 408.5C163.274 412.911 161.417 412.934 159.598 408.58C158.812 406.7 157.243 404.665 156.111 404.059C154.362 403.123 153.466 403.488 150.155 406.479C148.011 408.415 145.779 410 145.195 410C144.61 410 142.851 408.088 141.285 405.75C138.822 402.074 137.902 401.465 134.469 401.239C130.164 400.956 127.358 402.152 128.394 403.828C128.847 404.562 129.998 404.548 132.189 403.784C135.08 402.776 135.519 402.923 137.612 405.594C144.428 414.294 145.281 414.548 150.831 409.534C153.753 406.894 154.946 406.346 155.834 407.234C156.475 407.875 157 408.9 157 409.511C157 410.801 160.738 415.032 161.789 414.932C162.18 414.895 163.436 414.411 164.58 413.855ZM74.501 407.594C77.429 400.974 77.498 400.405 75.468 399.626C74.475 399.245 73.637 399.823 73.087 401.269C72.62 402.496 71.543 405.161 70.695 407.191C69.362 410.377 69.346 411.042 70.577 412.064C71.752 413.039 72.439 412.257 74.501 407.594ZM309.381 410.193C310.252 408.784 302.168 399.001 300.132 399C299.38 399 297.202 400.372 295.292 402.048C291.417 405.45 290.103 405.076 287.986 399.967C287.31 398.335 286.266 397 285.667 397C285.067 397 282.719 398.822 280.45 401.049L276.325 405.098L273.912 401.565C270.358 396.358 269.022 396.264 264.864 400.925C262.864 403.166 260.958 405 260.628 405C260.298 405 258.837 403.2 257.381 401C255.925 398.8 254.232 397.017 253.617 397.038C252.376 397.08 245 407.268 245 408.94C245 411.239 247.194 409.783 250.239 405.463L253.438 400.925L256.681 404.713C258.465 406.796 259.942 408.838 259.962 409.25C260.061 411.211 262.893 409.671 263.97 407.072C264.637 405.462 266.083 403.33 267.183 402.334C269.137 400.566 269.272 400.628 272.997 404.997L276.811 409.47L280.718 405.067L284.625 400.665L287.014 404.082C288.328 405.962 289.86 407.812 290.418 408.193C290.977 408.574 293.397 407.277 295.796 405.311L300.159 401.736L304.403 406.558C307.222 409.762 308.893 410.982 309.381 410.193ZM419.543 399.75C417.577 396.312 413.647 389.338 410.809 384.25C407.971 379.162 405.37 375 405.03 375C404.432 375 397.962 401.242 398.435 401.751C398.749 402.088 420.153 405.966 421.808 405.985C422.639 405.994 421.813 403.722 419.543 399.75ZM353 404.487C353 403.107 349.94 393.453 349.064 392.068C348.314 390.884 347.476 390.841 344.213 391.818C337.573 393.808 337 393.549 337 388.559C337 386.116 336.58 383.858 336.066 383.541C335.243 383.032 331.068 384.219 325.75 386.472C324.579 386.968 323.998 386.765 323.994 385.857C323.991 385.111 323.52 382.812 322.947 380.75C321.737 376.392 320.24 376.074 314.564 378.968C312.441 380.05 310.347 380.714 309.91 380.444C309.473 380.174 308.813 377.933 308.442 375.464C308.072 372.995 307.388 370.74 306.922 370.452C306.173 369.989 303.956 371.164 295.218 376.654C293.963 377.443 293.215 378.539 293.556 379.09C293.925 379.688 296.337 378.872 299.54 377.064C302.49 375.399 305.099 374.366 305.337 374.768C305.575 375.171 306.068 377.309 306.434 379.52C307.545 386.242 308.106 386.523 313.549 383.071C316.212 381.382 318.721 380 319.124 380C319.527 380 320.41 382.475 321.087 385.5C321.764 388.525 322.686 391 323.135 391C323.584 391 325.425 390.102 327.226 389.004C332.343 385.884 333.674 386.339 334.444 391.477C334.813 393.939 335.463 396.168 335.887 396.43C336.311 396.692 338.835 396.252 341.494 395.452C344.154 394.651 346.593 394.255 346.915 394.57C347.237 394.886 348.175 397.217 349 399.75C349.825 402.283 351.062 404.538 351.75 404.761C352.437 404.984 353 404.861 353 404.487ZM407 400.195C404.525 399.782 402.509 399.007 402.52 398.472C402.576 395.642 405.476 384 406.124 384C406.961 384 416 399.675 416 401.127C416 401.628 414.987 401.792 413.75 401.492C412.513 401.191 409.475 400.608 407 400.195ZM188.868 392.71C190.721 388.744 193.285 383.176 194.568 380.336L196.899 375.172L190.199 372.482C186.515 371.002 181.31 368.924 178.634 367.864L173.768 365.938L174.443 368.719C175.916 374.788 184.366 399.998 184.915 399.96C185.237 399.938 187.016 396.675 188.868 392.71ZM232.6 394.6C237.249 389.951 237.355 384.613 232.899 379.538C231.194 377.596 229.36 376.278 228.824 376.609C228.266 376.954 228.682 378.127 229.8 379.355C234.811 384.865 234.815 389.295 229.814 393.503C226.006 396.708 222.938 396.666 219.636 393.364C216.688 390.415 216.146 385.954 218.5 384C219.697 383.007 220.303 383.007 221.5 384C222.325 384.685 223 385.865 223 386.622C223 387.38 223.675 388 224.5 388C226.769 388 226.297 384.628 223.686 382.174C220.608 379.283 218.591 379.433 215.982 382.75C213.204 386.282 213.865 391.206 217.65 395.156C219.838 397.44 221.243 398 224.787 398C228.472 398 229.761 397.439 232.6 394.6ZM112.767 387.75C118.632 371.385 123.196 356.863 122.647 356.313C120.765 354.432 118.585 358.744 113.107 375.178C109.748 385.256 107 394.064 107 394.751C107 395.438 107.632 396 108.405 396C109.26 396 110.969 392.767 112.767 387.75ZM181.685 381.883C180.137 376.886 179.096 372.57 179.374 372.293C180.168 371.499 192 376.374 191.999 377.495C191.998 379.203 186.132 391.001 185.292 390.985C184.857 390.977 183.233 386.881 181.685 381.883ZM81.668 382.097C80.964 375.359 81.313 375 88.582 375C91.842 375 93 374.607 93 373.5C93 372.333 91.667 372 87 372H81L80.986 368.25C80.967 363.028 80.012 360 78.383 360C77.362 360 77 361.542 77 365.893C77 372.478 76.48 373 69.918 373C67.102 373 66 373.422 66 374.5C66 375.667 67.333 376 72 376H78V382C78 387.466 78.191 388 80.142 388C82.16 388 82.249 387.656 81.668 382.097ZM384.582 384.031C387.968 382.661 392 377.14 392 373.874C392 370.09 389.583 365.382 386.904 363.949C383.707 362.237 383.475 363.588 386.376 367.034C389.931 371.26 389.922 376.241 386.354 379.548C382.903 382.746 378.105 382.805 375.174 379.686C372.82 377.179 372.273 372.127 374.153 370.247C375.755 368.645 379 370.512 379 373.035C379 375.317 380.531 375.664 381.337 373.564C381.64 372.774 380.981 370.974 379.872 369.564C375.55 364.069 369.141 368.241 370.338 375.769C371.429 382.634 378.252 386.592 384.582 384.031ZM151.316 383.584C156.152 381.818 158.912 379.36 160.638 375.282C162.688 370.438 162.338 364.792 159.75 360.99C155.92 355.362 152.545 353.5 146.177 353.5C139.082 353.5 134.604 356.381 131.782 362.76C126.279 375.201 138.525 388.255 151.316 383.584ZM483.826 379.686C485.022 378.413 486 376.388 486 375.186C486 372.129 482.538 369 479.155 369C473.445 369 470.918 375.983 475.189 379.961C478.064 382.64 481.142 382.542 483.826 379.686ZM139.967 379.483C136.231 377.551 134 373.238 134 367.95C134 364.583 134.627 363.173 137.321 360.479C141.71 356.09 146.695 355.127 151.667 357.707C159.633 361.841 160.974 371.226 154.521 377.679C151.827 380.373 150.417 381 147.05 381C144.768 381 141.581 380.317 139.967 379.483ZM476.588 376.709C475.256 374.598 478.058 371.424 480.445 372.341C483.019 373.328 483.549 376.125 481.453 377.658C479.266 379.257 478.046 379.019 476.588 376.709ZM362 373C364.499 370.501 364.584 365.839 362.171 363.655C358.176 360.04 351 363.105 351 368.427C351 371.143 355.187 375 358.135 375C359.161 375 360.9 374.1 362 373ZM355.571 370.429C353.615 368.472 353.598 367.579 355.487 366.011C357.229 364.565 359.795 365.302 360.635 367.49C361.226 369.031 359.458 372 357.949 372C357.506 372 356.436 371.293 355.571 370.429ZM276.381 363.015C282.489 361.081 287 354.703 287 348C287 336.323 275.095 328.871 264.576 333.963C261.989 335.215 259.185 337.583 257.981 339.531C255.352 343.785 255.117 351.696 257.499 355.73C261.114 361.849 269.655 365.145 276.381 363.015ZM444.335 361.25C445.464 359.383 447.212 344.82 446.396 344.08C445.246 343.038 430.02 340.646 429.276 341.391C428.422 342.245 425.824 358.158 426.439 358.772C427.038 359.371 439.55 361.906 442.191 361.963C443.121 361.983 444.086 361.662 444.335 361.25ZM297.852 360.25C300.14 355.908 312.119 323.785 311.631 323.298C309.914 321.58 307.663 325.658 301.197 342.201C297.239 352.329 294 360.927 294 361.308C294 362.743 296.968 361.928 297.852 360.25ZM264.696 358.818C261.892 357.348 259.007 351.862 259.007 348C259.007 339.991 266.767 333.715 273.993 335.88C275.968 336.471 278.819 338.245 280.329 339.822C290.131 350.052 277.426 365.491 264.696 358.818ZM340 354.05V348.1L345.74 347.8C350.268 347.563 351.551 347.13 351.814 345.75C352.101 344.239 351.318 344 346.073 344H340V337.927C340 332.681 339.762 331.899 338.25 332.19C336.837 332.463 336.5 333.584 336.5 338.014V343.5L331.331 343.799C328.383 343.97 325.65 344.717 324.969 345.538C323.462 347.353 324.641 347.837 331.5 348.22L336.5 348.5L336.8 354.25C337.02 358.469 337.486 360 338.55 360C339.654 360 340 358.581 340 354.05ZM432.269 357.094C431.042 356.767 430.003 356.05 429.96 355.5C429.783 353.251 431.236 344.972 431.877 344.576C432.731 344.048 442.255 345.972 443.161 346.855C443.525 347.21 443.366 350.099 442.807 353.276L441.792 359.052L438.146 358.37C436.141 357.995 433.496 357.421 432.269 357.094ZM63.149 357.299C65.771 354.25 66.049 353.259 65.032 350.584C64.155 348.277 63.509 348 59.003 348C54.576 348 53.816 348.31 52.805 350.529C50.335 355.95 59.276 361.802 63.149 357.299ZM364.242 357.425C364.558 357.108 364.431 355.503 363.959 353.857C362.662 349.335 364.295 346.405 369.363 344.163C377.147 340.72 378.036 335.859 371.978 329.861C369.766 327.671 368.249 325.406 368.607 324.826C368.965 324.247 371.219 322.906 373.616 321.846C379.153 319.396 380.562 316.983 378.628 313.259C377.84 311.742 375.801 309.474 374.097 308.22C372.394 306.966 371 305.279 371 304.47C371 303.662 370.325 303 369.5 303C366.707 303 367.98 306.159 372.572 310.622C375.087 313.066 376.966 315.614 376.748 316.283C376.53 316.952 374.271 318.497 371.73 319.715C364.612 323.126 364.106 325.075 368.97 330.352C371.187 332.756 373 335.616 373 336.707C373 338.988 370.524 341.451 367.216 342.46C362.056 344.033 359.879 349.214 361.63 355.75C362.226 357.972 363.121 358.546 364.242 357.425ZM56.202 353.412C55.784 350.488 58.494 348.336 60.5 350C62.075 351.307 62.496 354.17 61.291 355.376C59.88 356.787 56.497 355.482 56.202 353.412ZM243.419 346.75C243.025 345.512 240.994 338.037 238.906 330.137C235.317 316.566 234.458 314.098 233.664 315.083C233.48 315.313 230.528 320.804 227.104 327.287L220.879 339.074L231.481 344.037C237.312 346.767 242.544 349 243.109 349C243.718 349 243.844 348.086 243.419 346.75ZM117.274 343.892C120.449 341.689 122.77 339.437 122.431 338.888C122.047 338.268 120.906 338.478 119.407 339.446C118.083 340.301 115.895 341.714 114.544 342.586C112.029 344.211 110.004 343.812 109.994 341.691C109.983 339.244 107.875 333 107.06 333C105.638 333 104.975 335.977 105.993 337.79C106.522 338.73 107.432 341.412 108.016 343.75C108.599 346.088 109.622 347.977 110.289 347.949C110.955 347.921 114.098 346.096 117.274 343.892ZM99 344.843C99 343.36 90.965 312.778 90.281 311.656C89.837 310.929 77 334.054 77 335.58C77 336.12 97.341 346 98.452 346C98.754 346 99 345.479 99 344.843ZM226.61 337.98C225.692 337.093 231.89 324.01 233.231 324.004C233.633 324.002 234.242 325.238 234.583 326.75C234.925 328.262 236.059 332.474 237.102 336.108C238.146 339.742 239 342.98 239 343.303C239 343.997 227.904 339.23 226.61 337.98ZM33 340.738C33 339.953 32.1 338.495 31 337.5C24.318 331.453 34.606 319.329 41.837 324.728C44.015 326.354 44.5 327.516 44.5 331.108C44.5 334.833 44.196 335.5 42.5 335.5C41.384 335.5 40.063 334.504 39.511 333.246C38.527 331.002 36.932 330.704 36.286 332.643C35.734 334.299 39.985 339 42.034 339C44.77 339 48 335.082 48 331.762C48 328.01 45.538 323.358 42.768 321.876C37.651 319.137 30.264 321.656 27.449 327.099C25.412 331.037 25.642 334.177 28.25 338.025C30.72 341.67 33 342.973 33 340.738ZM88.377 337.873C80.802 334.568 80.853 334.712 84.692 327.481C86.585 323.917 88.451 321 88.839 321C89.227 321 90.703 325.275 92.119 330.5C93.535 335.725 94.369 340 93.974 340C93.578 340 91.06 339.043 88.377 337.873ZM190 335.468C190 335.094 188.875 333.452 187.5 331.818C184.285 327.997 184.252 323.657 187.414 320.495C190.941 316.968 194.621 316.327 197.783 318.687C200.834 320.965 202.058 324.612 200.859 327.852C199.805 330.701 196.888 330.369 195.513 327.244C194.97 326.01 194.182 325 193.763 325C192.248 325 193.042 329.728 194.829 331.345C199.146 335.252 204 331.736 204 324.701C204 314.209 190.035 311.331 183.946 320.567C181.393 324.441 181.496 327.957 184.285 332.095C186.312 335.102 190 337.279 190 335.468ZM16.928 317.75C18.694 311.562 20.22 305.661 20.32 304.637C20.47 303.079 18.94 302.388 11 300.427C5.775 299.137 1.163 298.063 0.75 298.041C0.337 298.018 0 299.345 0 300.99C0 303.833 11.762 329 13.09 329C13.435 329 15.163 323.937 16.928 317.75ZM422 326C422 325.45 421.616 325 421.146 325C420.676 325 419.101 323.896 417.646 322.548C413.169 318.399 414.321 311.437 419.966 308.517C423.193 306.849 425.393 307.301 428.75 310.323C431.763 313.035 431.94 319 429.008 319C427.913 319 426.455 318.1 425.768 317C424.206 314.499 423 314.431 423 316.845C423 319.257 426.089 322 428.806 322C429.993 322 431.686 320.883 432.589 319.504C436.296 313.846 430.697 305 423.409 305C418.438 305 413.059 310.141 412.328 315.59C411.848 319.168 412.181 320.137 414.993 323.34C417.99 326.752 422 328.275 422 326ZM347.623 315.513C350.011 310.295 350.092 308 347.886 308C346.531 308 341.708 318.718 342.492 319.987C343.779 322.069 345.181 320.846 347.623 315.513ZM7.448 311.896C4.933 306.888 3.063 302.603 3.293 302.374C3.755 301.911 15.934 304.601 16.659 305.325C17.129 305.795 12.955 321 12.356 321C12.171 321 9.962 316.903 7.448 311.896ZM397.996 314.504C401.473 310.961 402.149 309.749 401.186 308.786C400.222 307.822 398.986 308.54 395.355 312.172C392.789 314.737 391.05 317.272 391.432 317.89C392.532 319.67 393.331 319.258 397.996 314.504ZM287.926 316.123C289.26 315.75 290.545 314.865 290.781 314.157C291.105 313.186 290.315 313.038 287.565 313.554C284.789 314.075 283.453 313.815 281.96 312.464C280.882 311.488 280 310.163 280 309.519C280 307.82 275.653 304 273.72 304C272.812 304 270.532 305.35 268.653 307C266.774 308.65 264.967 310 264.638 310C264.31 310 263.122 308.2 262 306C259.212 300.534 255.885 300.531 250.75 305.989C246.566 310.436 246.318 311 248.551 311C249.404 311 251.64 309.321 253.52 307.269C257.279 303.166 257.921 303.327 260.805 309.105C263.034 313.569 265.795 313.867 269.462 310.04C273.421 305.908 275.528 306.154 278.021 311.04C279.167 313.287 281.203 315.507 282.606 316.04C283.994 316.568 285.213 316.955 285.315 316.9C285.417 316.845 286.592 316.496 287.926 316.123ZM170.412 309.25C175.36 303.028 175.798 302 173.5 302C172.675 302 171.983 302.338 171.962 302.75C171.942 303.162 170.459 305.212 168.666 307.305L165.408 311.11L162.133 306.055C160.331 303.275 158.536 301 158.144 301C157.752 301 156.643 302.334 155.681 303.964C153.709 307.301 151.223 310 150.121 310C149.716 310 147.931 307.937 146.153 305.415L142.922 300.831L138.941 305.165L134.96 309.5L133.23 307.054C128.342 300.144 128.701 300.276 124.411 303.813C122.284 305.566 120.001 307 119.337 307C118.673 307 116.863 305.21 115.315 303.021C113.767 300.833 111.937 299.033 111.25 299.021C109.391 298.99 109.682 299.796 113.173 304.356C118.442 311.236 118.76 311.349 123.351 307.973C125.575 306.338 127.746 305 128.177 305C128.607 305 129.878 306.8 131 309C132.122 311.2 133.48 313 134.017 313C134.555 313 136.839 311.333 139.094 309.297C142.733 306.009 143.3 305.785 144.149 307.302C144.675 308.242 146.202 310.246 147.543 311.756L149.979 314.5L154.165 310.101L158.35 305.702L160.677 308.601C161.957 310.195 163.258 312.287 163.569 313.25C164.462 316.013 165.528 315.39 170.412 309.25ZM483.553 307.75C481.593 304.312 477.637 297.352 474.762 292.282C471.887 287.213 469.263 283.388 468.93 283.782C467.921 284.979 462.786 307.858 463.229 309.186C463.604 310.313 479.254 313.752 484.808 313.927C487.078 313.999 487.057 313.897 483.553 307.75ZM325.333 311.333C327.203 309.464 324.815 306.292 311.643 293.143C300.463 281.982 297.144 279.182 296.644 280.486C296.174 281.71 299.825 286.175 310.209 297.08C318.023 305.286 324.473 312 324.541 312C324.61 312 324.967 311.7 325.333 311.333ZM473 308.949C470.525 308.398 467.975 307.762 467.333 307.537C466.482 307.238 466.664 305.194 468.007 299.973C469.019 296.039 470.055 292.612 470.309 292.357C470.789 291.877 472.459 294.483 477.927 304.25C481.544 310.709 481.423 310.825 473 308.949ZM65.673 307.621C67.228 306.313 69.311 305.076 70.303 304.871C71.294 304.667 72.106 304.05 72.106 303.5C72.106 301.449 68.87 301.932 65.908 304.424C61.978 307.73 60.184 307.682 59.45 304.25C57.82 296.63 55.019 295.074 50 299C48.625 300.076 47.007 300.966 46.405 300.978C44.644 301.014 42 297.529 42 295.171C42 291.672 38.537 289 34 289C31.8 289 30 289.45 30 290C30 290.55 31.35 291 33 291C36.626 291 40 294.098 40 297.427C40 300.613 44.555 304.273 47.407 303.38C48.558 303.02 50.565 301.893 51.868 300.876C54.801 298.586 55.597 299.036 56.426 303.457C57.126 307.188 59.304 310 61.495 310C62.238 310 64.119 308.93 65.673 307.621ZM228.372 305C228.676 304.175 230.303 298.775 231.986 293C233.67 287.225 235.28 281.751 235.564 280.836C235.996 279.445 234.176 278.729 224.484 276.475C218.106 274.992 212.661 274.005 212.384 274.282C212.107 274.559 215.467 281.922 219.85 290.643C224.609 300.114 228.042 305.896 228.372 305ZM386.772 298.162C387.769 297.53 387.589 296.325 385.943 292.604C384.787 289.992 384.055 287.3 384.315 286.622C384.575 285.945 386.683 284.765 389 284C392.952 282.696 394.99 280.656 393.665 279.332C393.345 279.012 391.152 279.53 388.791 280.485C386.431 281.439 384 282.419 383.388 282.664C382.776 282.908 381.262 280.609 380.022 277.554C377.973 272.506 376.351 270.982 374.742 272.592C374.416 272.917 375.016 275.205 376.075 277.675C377.134 280.145 378 282.744 378 283.45C378 284.156 375.75 285.668 373 286.811C368.226 288.795 366.949 290.232 368.891 291.433C369.382 291.736 371.862 291.064 374.403 289.94C376.944 288.816 379.422 288.143 379.91 288.444C380.397 288.746 381.606 291.244 382.596 293.996C384.481 299.238 384.713 299.469 386.772 298.162ZM97.543 294.551C98.331 292.665 99.094 289.632 99.238 287.811C99.637 282.766 96.87 283.527 95.317 288.89C94.618 291.305 93.797 294.064 93.493 295.022C93.159 296.076 93.566 297.003 94.525 297.371C95.661 297.807 96.517 297.006 97.543 294.551ZM222.223 288.485C219.9 283.802 218 279.567 218 279.074C218 278.114 230.068 280.617 231.12 281.796C231.802 282.56 227.877 297 226.987 297C226.689 297 224.545 293.168 222.223 288.485ZM191.726 294.907C203.353 289.151 203.535 273.048 192.038 267.25C189.584 266.012 186.417 265 185 265C177.598 265 169.056 273.304 169.016 280.538C168.987 285.888 172.986 292.241 177.962 294.75C183.5 297.543 186.335 297.575 191.726 294.907ZM178.255 291.431C168.92 285.315 171.172 272.126 182.111 268.849C189.303 266.694 197.273 273.081 197.273 281C197.273 290.856 186.443 296.796 178.255 291.431ZM445.515 284.538C447.982 282 450 279.716 450 279.462C450 279.208 449.153 279 448.119 279C447.084 279 445.036 280.575 443.568 282.5C442.1 284.425 440.359 285.999 439.699 285.997C439.04 285.996 437.6 284.314 436.5 282.259C433.884 277.374 431.575 277.051 427.5 281C423.823 284.563 421.131 284.646 419.436 281.248C417.581 277.527 414.808 274.999 412.595 275.014C409.026 275.037 406 276.175 406 277.494C406 278.396 407.278 278.61 410.497 278.247C414.883 277.753 415.031 277.829 416.495 281.334C419.239 287.9 423.694 288.678 428.501 283.429L431.772 279.858L434.669 284.172C436.263 286.544 438.346 288.636 439.298 288.819C440.33 289.018 442.844 287.287 445.515 284.538ZM280.107 284.503C286.572 280.989 288.048 272.404 283.099 267.106C281.503 265.398 279.478 264 278.599 264C276.259 264 276.593 264.75 280.627 268.555C283.803 271.55 284.174 272.383 283.603 275.238C282.695 279.783 278.879 283.333 274.902 283.333C269.041 283.333 264.593 275.242 268.618 271.902C270.016 270.742 270.544 270.945 272.492 273.388C275.226 276.817 276.995 275.167 274.563 271.456C272.806 268.775 268.302 268.098 266.2 270.2C265.54 270.86 265 273.379 265 275.799C265 283.826 272.937 288.4 280.107 284.503ZM80.393 282.418C80.727 281.548 81 280.708 81 280.551C81 280.394 72.851 274.071 62.891 266.5C49.287 256.158 44.575 253.07 43.948 254.083C43.467 254.862 43.583 255.997 44.222 256.768C45.344 258.12 78.819 284 79.446 284C79.633 284 80.059 283.288 80.393 282.418ZM353.545 280.545C356.397 277.694 356.637 275.354 354.405 272.168C352.169 268.976 346.453 269.485 343.754 273.116C341.948 275.546 341.92 275.945 343.365 278.739C344.7 281.321 347.334 282.936 350.295 282.986C350.733 282.994 352.195 281.895 353.545 280.545ZM346.5 276C346.5 273.016 349.955 272.036 351.96 274.452C353.007 275.713 353.007 276.287 351.96 277.548C349.955 279.964 346.5 278.984 346.5 276ZM148.613 271.567C148.915 270.779 148.001 268.152 146.581 265.729C145.162 263.306 144 261.045 144 260.704C144 260.363 146.025 258.898 148.5 257.447C150.975 255.997 153 254.178 153 253.405C153 251.382 151.063 251.716 146.5 254.526C144.3 255.881 142.191 256.992 141.812 256.995C141.434 256.998 139.9 254.75 138.403 252C136.907 249.25 135.29 247 134.81 247C132.717 247 133.042 250.215 135.571 254.53C138.571 259.651 138.791 259.144 131.834 263.158C129.597 264.449 128.372 265.805 128.691 266.637C129.424 268.547 130.472 268.358 135 265.5C137.178 264.125 139.325 263 139.77 263C140.215 263 141.894 265.25 143.5 268C146.535 273.196 147.681 273.996 148.613 271.567ZM484.427 264.118C485.261 262.769 482.212 261.217 477.125 260.404C474.856 260.041 473 259.514 473 259.233C473 258.951 474.376 256.485 476.058 253.752C477.74 251.018 478.874 248.54 478.578 248.245C478.283 247.95 475.725 247.342 472.894 246.894C470.063 246.447 467.479 245.813 467.152 245.485C466.824 245.158 467.781 242.711 469.278 240.047C470.775 237.384 472 234.987 472 234.721C472 234.455 470.087 233.739 467.75 233.13C461.012 231.375 460.654 230.858 463.502 226.998C464.876 225.135 466 223.033 466 222.326C466 221.619 464.178 220.111 461.951 218.975C456.855 216.375 456.373 215.078 458.936 210.873C461.011 207.469 461.659 204 460.22 204C459.071 204 452.962 216.13 453.595 217.154C453.893 217.635 455.875 218.916 458 220C460.125 221.084 462.099 222.351 462.385 222.815C462.672 223.278 461.552 225.301 459.897 227.309L456.887 230.961L460.193 233.001C462.012 234.123 464.513 235.306 465.75 235.629C466.987 235.952 468 236.336 468 236.482C468 236.629 466.851 238.804 465.447 241.316L462.894 245.884L465.197 247.344C466.464 248.147 468.962 249.109 470.75 249.481C474.687 250.302 474.743 250.92 471.34 256.062C469.776 258.425 469.055 260.432 469.59 260.934C470.091 261.403 472.751 262.256 475.502 262.83C478.253 263.403 481.245 264.157 482.151 264.504C483.057 264.852 484.081 264.678 484.427 264.118ZM510.75 263.392C511.437 263.085 512 262.01 512 261.004C512 259.413 511.633 259.312 509.191 260.234C501.857 263.002 493 256.785 493 248.869C493 240.573 499.02 235.291 507.401 236.236C511.377 236.684 512.054 236.514 511.791 235.133C511.557 233.902 510.121 233.428 505.953 233.206C501.526 232.971 499.746 233.37 497.017 235.21C487.74 241.461 487.291 254.798 496.143 261.102C499.246 263.311 507.894 264.667 510.75 263.392ZM112.927 259.365C114.067 257.916 115 256.177 115 255.5C115 252.89 110.86 249 108.082 249C102.335 249 99.553 256.6 103.986 260.19C107.157 262.758 110.501 262.449 112.927 259.365ZM106.2 257.8C103.471 255.071 106.745 250.488 109.991 252.494C111.424 253.38 111.244 257.735 109.75 258.338C107.795 259.127 107.479 259.079 106.2 257.8ZM176.856 255.673C177.462 254.944 178.671 252.638 179.544 250.549L181.131 246.751L183.815 249.154C191.245 255.805 190.499 255.773 193.343 249.563C194.743 246.503 196.276 244 196.749 244C197.221 244 199.134 245.575 201 247.5C204.943 251.568 206.546 251.881 207.389 248.75C207.722 247.512 208.871 245.375 209.944 244L211.894 241.5L215.788 245.297L219.682 249.095L223.338 245.047C225.349 242.821 227.269 241 227.603 241C227.938 241 229.917 242.35 232 244C235.678 246.913 238 247.784 238 246.25C238 245.837 236.334 244.15 234.298 242.5C226.874 236.485 227.568 236.562 223.102 241.248L219.049 245.5L215.952 241.75C214.248 239.687 212.465 238 211.989 238C211.514 238 209.679 240.013 207.913 242.472L204.701 246.944L201.316 243.972C197.029 240.208 195.334 240.23 193.203 244.075C189.415 250.913 189.521 250.877 185.275 246.75C183.152 244.687 181.094 243 180.7 243C179.959 243 174 254.72 174 256.177C174 257.441 175.627 257.154 176.856 255.673ZM318.856 253.646C319.942 252.307 326 239.055 326 238.019C326 236.732 309.883 229.716 309.004 230.62C308.533 231.104 306.557 235.005 304.613 239.29L301.078 247.079L303.289 247.923C304.505 248.387 308.296 250.123 311.713 251.78C316.237 253.974 318.18 254.481 318.856 253.646ZM310.935 247.877C308.221 246.709 306 245.344 306 244.844C306 244.343 307.122 241.719 308.494 239.013L310.987 234.092L314.744 235.813C322.75 239.482 322.517 239.046 319.579 244.844C318.142 247.68 316.72 250 316.419 250C316.117 250 313.65 249.045 310.935 247.877ZM272.575 242.308C273.516 238.077 274.334 233.957 274.393 233.153C274.469 232.117 272.168 231.17 266.5 229.903C262.1 228.919 258.008 228.089 257.406 228.057C255.995 227.983 252.415 244.841 253.61 245.935C254.394 246.652 267.936 250 270.054 250C270.499 250 271.634 246.538 272.575 242.308ZM260.415 244.874C257.034 244.023 256.06 243.353 256.419 242.124C256.68 241.231 257.199 238.777 257.573 236.67C257.947 234.564 258.865 232.605 259.615 232.318C261.364 231.646 271 233.936 271 235.023C271 235.477 270.473 238.132 269.828 240.924C268.523 246.578 268.02 246.789 260.415 244.874ZM401.569 240.888C402.653 239.134 400.649 238.494 394.346 238.582C389.725 238.647 388.432 239.013 388.177 240.332C387.901 241.752 388.823 242 394.368 242C398.069 242 401.179 241.52 401.569 240.888ZM371.25 240.428C372.762 239.607 374 238.468 374 237.897C374 237.325 374.675 236.182 375.5 235.357C378.09 232.767 377.388 226.627 374.099 223.106C371.357 220.171 368 218.948 368 220.885C368 221.372 369.145 222.52 370.545 223.437C374.233 225.854 375.294 229.362 373.578 233.467C371.963 237.333 369.42 239 365.138 239C359.814 239 355.765 231.1 359.5 228C360.697 227.007 361.303 227.007 362.5 228C363.325 228.685 364 229.865 364 230.622C364 232.21 365.594 232.466 366.487 231.021C367.406 229.534 365.146 225.992 362.685 225.062C357.849 223.235 354.076 228.669 356.042 234.628C358.209 241.194 365.038 243.798 371.25 240.428ZM74.588 237.857C76.038 235.511 79.861 221.465 79.214 220.857C78.322 220.019 64.792 216 62.863 216C61.934 216 60.618 218.94 59.057 224.503C57.746 229.179 56.859 233.183 57.086 233.399C58.463 234.709 74.076 238.685 74.588 237.857ZM27.843 219.372C32.372 209.127 35.813 200.48 35.491 200.157C33.83 198.496 30.967 203.23 23.841 219.42C19.529 229.219 16 237.409 16 237.618C16 237.828 16.812 238 17.804 238C19.184 238 21.546 233.617 27.843 219.372ZM61 229.985C61 227.908 62.991 221.813 64.056 220.631C64.887 219.708 74.686 221.683 75.457 222.93C75.888 223.628 73.632 232.168 72.557 233.907C72.273 234.367 69.556 234.052 66.52 233.207C62.617 232.121 61 231.177 61 229.985ZM434.777 232.443C439.407 229.201 436.632 220.979 430.921 221.015C426.318 221.044 423.36 225.186 424.952 229.374C426.621 233.763 430.959 235.118 434.777 232.443ZM429.04 229.548C427.123 227.238 428.186 224.5 431 224.5C432.585 224.5 433.597 225.145 433.819 226.298C434.165 228.096 432.424 231 431 231C430.585 231 429.703 230.347 429.04 229.548ZM123.411 227.923C124.835 226.231 126 224.431 126 223.923C126 222.018 128.246 223.118 131.584 226.658L135.034 230.316L137.437 228.059C138.758 226.818 140.392 224.468 141.067 222.838L142.295 219.873L146.435 223.937C148.713 226.171 150.844 228 151.171 228C151.498 228 153.415 225.232 155.431 221.848C157.818 217.841 158.755 215.355 158.118 214.718C157.482 214.082 156.024 215.557 153.937 218.948L150.733 224.155L146.579 220.077C144.294 217.835 142.125 216 141.759 216C141.393 216 140.224 217.967 139.16 220.371C136.358 226.705 135.317 226.921 130.856 222.089C127.246 218.179 125.007 217.499 124.995 220.309C124.992 220.964 123.864 222.85 122.489 224.5L119.987 227.5L116.474 223.561L112.961 219.622L108.731 223.733L104.5 227.845L100.121 223.922C95.753 220.009 94 219.157 94 220.945C94 222.198 103.204 230.947 104.554 230.977C105.133 230.99 107.134 229.425 109 227.5C110.866 225.575 112.717 224 113.115 224C113.512 224 114.81 225.575 116 227.5C118.657 231.8 120.081 231.881 123.411 227.923ZM502.75 215.846C508.532 210.828 512 207.084 512 205.861C512 204.312 510.384 205.267 504.25 210.442C499.988 214.038 496.143 216.984 495.706 216.99C495.27 216.995 495.045 213.738 495.206 209.75L495.5 202.5L503.75 202.853C510.459 203.139 512 202.934 512 201.752C512 200.636 509.894 200.15 502.899 199.653C497.893 199.298 493.393 199.257 492.899 199.563C491.82 200.229 491.675 224.027 492.75 223.937C493.163 223.902 497.662 220.261 502.75 215.846ZM197.495 222.008C197.832 221.463 196.661 218.914 194.893 216.345L191.679 211.673L194.122 209.586C195.466 208.439 197.676 206.755 199.033 205.845C200.922 204.579 201.228 203.908 200.34 202.985C199.441 202.051 198.163 202.48 194.66 204.89C192.174 206.601 189.93 208 189.674 208C189.418 208 187.781 205.776 186.037 203.057C183.964 199.827 182.369 198.305 181.433 198.664C179.374 199.454 179.627 200.502 183 205.159C184.65 207.436 186 209.641 186 210.058C186 210.475 183.976 212.095 181.502 213.658C177.187 216.384 176.003 218.266 177.875 219.423C178.356 219.72 180.602 218.622 182.866 216.982C185.13 215.342 187.415 214 187.943 214C188.472 214 190.297 216.025 192 218.5C195.119 223.033 196.368 223.831 197.495 222.008ZM392.719 218.25C393.08 217.288 396.395 208.736 400.086 199.246C406.268 183.352 407.289 178.205 403.481 182.132C402.175 183.479 389 217.009 389 218.986C389 220.704 392.023 220.106 392.719 218.25ZM296.305 216.361C296.657 216.01 295.832 214.4 294.472 212.784C290.911 208.552 291.141 203.9 295.077 200.589C298.908 197.365 302.958 197.262 305.826 200.314C308.098 202.734 308.67 207.4 307.013 210C305.744 211.991 302.627 210.152 302.18 207.148C301.829 204.784 300.484 204.29 299.738 206.25C298.984 208.234 300.695 211.766 303.011 213.006C305.729 214.46 309.685 212.103 310.593 208.487C312.717 200.023 303.857 192.437 296.369 196.309C289.123 200.056 287.161 206.623 291.383 213.002C293.977 216.923 295.027 217.639 296.305 216.361ZM270.5 206C270.84 205.45 270.828 204.531 270.474 203.958C269.808 202.88 237.449 181 236.522 181C236.235 181 236 181.821 236 182.824C236 184.062 241.279 188.242 252.418 195.824C261.448 201.971 269.071 207 269.359 207C269.647 207 270.16 206.55 270.5 206ZM362.917 202.25C365.204 193.622 366.032 188.638 365.29 187.979C364.856 187.594 360.794 186.369 356.264 185.257L348.029 183.236L347.048 186.788C345.02 194.134 343.698 201.031 344.218 201.551C344.664 201.997 360.237 206 361.525 206C361.744 206 362.37 204.312 362.917 202.25ZM154.999 204.877C167.251 199.991 168.478 183.272 157.075 176.612C143.752 168.831 128.88 183.408 135.63 197.633C138.688 204.077 148.141 207.612 154.999 204.877ZM114.003 203.357C114.007 202.051 100.573 171.056 99.99 171.026C99.08 170.98 90.846 195.157 91.337 196.435C91.598 197.116 96.242 198.93 101.656 200.466C107.07 202.001 112.062 203.473 112.75 203.736C113.437 203.999 114.001 203.828 114.003 203.357ZM142.912 200.72C138.889 198.008 137.035 194.702 137.015 190.2C136.966 179.195 149.441 173.795 157.613 181.284C168.749 191.49 155.402 209.137 142.912 200.72ZM352.991 200.809L347.83 199.617L348.514 195.059C349.667 187.365 350.143 186.955 356.092 188.524C358.905 189.266 361.458 190.124 361.764 190.431C362.577 191.243 360.011 202 359.005 202C358.536 202 355.83 201.464 352.991 200.809ZM56.351 201.316C56.688 200.979 55.397 198.968 53.482 196.848C49.761 192.73 49.351 191.138 51.117 187.684C53.491 183.042 58.141 180.966 62.455 182.621C64.838 183.535 67.259 188.833 66.562 191.608C65.724 194.946 62.247 194.779 60.938 191.337C60.182 189.35 59.638 188.962 58.79 189.81C57.063 191.537 59.407 195.813 62.506 196.591C68.907 198.198 71.702 187.904 66.25 182.799C62.505 179.293 59.77 178.652 55.741 180.335C48.452 183.38 45.665 191.762 50.078 197.371C52.416 200.345 55.428 202.239 56.351 201.316ZM101.784 197.186C98.64 196.204 95.79 195.123 95.45 194.783C94.7 194.033 99.105 180 100.09 180C100.473 180 101.015 180.562 101.294 181.25C101.574 181.937 103.405 186.212 105.363 190.75C107.322 195.288 108.604 198.993 108.212 198.985C107.82 198.977 104.928 198.167 101.784 197.186ZM23.75 192.969C27.679 191.39 26.325 189.994 21.505 190.654C17.086 191.26 16.986 191.21 15.507 187.671C13.946 183.936 11.474 182 8.26199 182C5.92999 182 -0.377985 188.365 0.209015 190.126C0.491015 190.974 1.93299 190.133 4.36499 187.701C7.51399 184.552 8.39901 184.143 10.092 185.05C11.194 185.639 12.496 187.174 12.985 188.46C13.998 191.125 17.706 194.031 19.973 193.937C20.813 193.902 22.512 193.466 23.75 192.969ZM456 181V172H447H438V181V190H447H456V181ZM217.442 187.75C218.024 185.836 220 177.187 220 176.557C220 176.251 219.162 176 218.138 176C216.675 176 216.032 177.214 215.138 181.667C214.512 184.784 214 187.709 214 188.167C214 189.496 217.023 189.13 217.442 187.75ZM441.202 180.863L441.5 174.726L446.63 174.73C449.451 174.732 452.264 175.045 452.88 175.426C454.075 176.164 454.452 185.215 453.333 186.333C452.967 186.7 450.02 187 446.786 187H440.905L441.202 180.863ZM37 180.063C37 178.364 36.37 178 33.427 178C30.564 178 29.919 178.348 30.185 179.75C30.403 180.903 31.623 181.607 33.758 181.813C36.468 182.075 37 181.788 37 180.063ZM289.495 177.008C289.832 176.463 288.733 174.019 287.054 171.578C285.374 169.137 284 166.7 284 166.162C284 165.624 286.024 163.905 288.498 162.342C290.972 160.779 292.997 159.189 292.998 158.809C293.003 157.152 290.718 156.953 288.456 158.414C280.467 163.573 281.603 163.615 278.021 158.033C276.245 155.265 274.415 153 273.955 153C272.163 153 271.901 155.201 273.414 157.544C278.626 165.615 278.611 164.484 273.558 167.96C271.051 169.685 269 171.749 269 172.548C269 174.726 270.669 174.324 275.543 170.971L279.946 167.941L283.223 172.953C286.418 177.838 288.25 179.023 289.495 177.008ZM317.777 173.443C320.579 171.481 320.799 166.033 318.171 163.655C314.218 160.077 307 163.095 307 168.326C307 171.107 310.845 175 313.592 175C314.672 175 316.555 174.299 317.777 173.443ZM486.889 169.44C494.894 162.704 489.538 151 478.45 151C475.632 151 474.025 151.775 471.4 154.4C469.53 156.27 468 158.745 468 159.9C468 162.68 469.826 162.586 470.91 159.75C472.85 154.676 477.715 152.436 482.475 154.425C488.131 156.789 489.564 161.742 485.927 166.365C484.549 168.118 482.894 169 480.986 169C477.1 169 476.345 167.326 478.97 164.531C481.6 161.732 479.879 159.895 477.037 162.467C469.9 168.925 479.46 175.691 486.889 169.44ZM311.573 170.431C309.659 168.516 311.216 164.698 313.71 165.19C316.294 165.699 317.594 168.579 316.07 170.416C314.42 172.403 313.549 172.406 311.573 170.431ZM145 167.161C145 166.699 143.897 165.818 142.548 165.204C139.391 163.765 136.778 158.733 137.563 155.603C138.341 152.507 141.748 149.335 145.225 148.472C147.428 147.925 148.529 148.375 150.975 150.821C153.979 153.825 155.008 158.259 152.991 159.506C151.437 160.466 148 159.039 148 157.433C148 155.737 146.407 155.533 145.436 157.104C145.06 157.711 145.891 159.346 147.282 160.736C152.318 165.773 157.975 161.113 155.908 153.631C153.312 144.229 141.048 143.206 136.494 152.011C133.816 157.19 134.913 162.62 139.367 166.228C141.601 168.037 145 168.6 145 167.161ZM76.014 164.19C80.403 160.636 77.677 153 72.019 153C69.046 153 65 156.666 65 159.36C65 161.692 69.44 166 71.844 166C72.908 166 74.785 165.185 76.014 164.19ZM46.477 164.037C46.804 163.508 45.935 160.831 44.545 158.088L42.018 153.101L44.231 151.551C45.449 150.698 46.97 150 47.612 150C48.253 150 49.841 149.133 51.139 148.074C53.196 146.396 53.286 146.065 51.84 145.502C50.927 145.146 48.902 145.506 47.34 146.301C41.099 149.478 40.464 149.368 38.47 144.767C35.821 138.656 35.01 137.747 33.399 139.084C32.304 139.993 32.514 141.081 34.568 145.134C35.945 147.851 36.84 150.45 36.557 150.907C36.274 151.365 34.571 152.324 32.771 153.037C28.26 154.827 27.029 155.911 27.654 157.542C28.083 158.658 29.193 158.429 33.194 156.401C35.947 155.007 38.325 154.008 38.479 154.183C38.633 154.357 39.946 156.863 41.397 159.75C43.974 164.881 45.276 165.98 46.477 164.037ZM12.582 163.031C16.25 161.547 20 156.152 20 152.358C20 147.961 18.794 145.701 15.009 143.006C10.51 139.803 9.14301 141.669 13.411 145.187C16.432 147.677 17 148.775 17 152.121C17 161.671 5.23701 164.358 1.45801 155.671L0.0780029 152.5L0.0539856 155.5C0.0269856 158.994 0.608992 160.006 3.97299 162.308C6.64399 164.136 9.298 164.359 12.582 163.031ZM70.163 162.122C69.427 161.655 68.977 160.2 69.163 158.887C69.415 157.102 70.127 156.5 71.986 156.5C74.814 156.5 75.882 159.232 73.96 161.548C72.577 163.214 72.019 163.299 70.163 162.122ZM244.048 159.747C256.843 151.124 251.375 131 236.238 131C223.827 131 216.188 143.793 222.266 154.396C226.513 161.802 237.128 164.41 244.048 159.747ZM226.83 155.136C223.135 151.001 222.377 147.525 224.095 142.597C227.288 133.435 238.146 131.218 244.716 138.387C247.302 141.208 248 142.835 248 146.035C248 154.619 243 159.31 234.559 158.646C230.554 158.331 229.091 157.666 226.83 155.136ZM398.351 155.75C403.02 149.105 402.617 149.22 406.825 153.329C411.085 157.489 411.471 157.357 415.708 150.287L417.634 147.074L421.435 150.207C425.979 153.953 427.496 153.431 430.603 147.054L432.705 142.739L436.724 146.369C438.934 148.366 441.175 150 441.703 150C443.241 150 448.139 136.739 447.016 135.616C446.39 134.99 445.157 136.657 443.536 140.323C442.155 143.445 440.765 146 440.446 146C440.127 146 438.209 144.429 436.183 142.509C434.157 140.588 431.988 139.013 431.361 139.009C430.735 139.004 429.933 140.543 429.579 142.429C429.226 144.314 428.127 146.857 427.137 148.079L425.338 150.3L421.062 146.437C416.968 142.738 416.726 142.654 415.393 144.478C414.627 145.525 414 146.762 414 147.226C414 147.691 413.257 149.204 412.349 150.59L410.698 153.111L406.778 149.305L402.859 145.5L400.811 148C399.685 149.375 397.936 151.548 396.925 152.829L395.088 155.158L390.368 151.555C387.198 149.134 385.318 148.282 384.641 148.959C384.087 149.513 383.828 150.115 384.067 150.295C389.173 154.167 394.994 158 395.769 158C396.32 158 397.481 156.988 398.351 155.75ZM370 156.487C370 154.297 366.697 144.993 365.594 144.078C364.636 143.283 363.116 143.401 359.96 144.514C354.873 146.309 354.045 145.755 353.28 140.048C352.753 136.12 352.552 135.895 350.109 136.495C348.674 136.847 346.179 137.787 344.565 138.583C341.154 140.266 340.747 139.943 339.128 134.25C338.464 131.913 337.375 130.005 336.71 130.012C336.044 130.019 333.523 131.154 331.107 132.535C328.69 133.917 326.547 134.881 326.344 134.678C326.142 134.475 325.425 131.989 324.751 129.154C324.078 126.319 323.065 124 322.5 124C321.722 124 312.518 129.65 310.15 131.581C309.957 131.738 310.087 132.332 310.438 132.9C310.832 133.538 312.925 132.797 315.899 130.967C318.551 129.335 320.964 128 321.261 128C321.558 128 322.341 130.251 323.001 133.003C323.661 135.755 324.607 138.257 325.103 138.564C325.599 138.87 327.991 137.694 330.42 135.95C332.848 134.207 335.277 133.053 335.817 133.387C336.357 133.721 337.339 136.245 337.999 138.997C338.659 141.749 339.648 144 340.195 144C340.743 144 342.394 143.144 343.864 142.097C348.876 138.528 350.332 138.948 351.326 144.25C352.31 149.501 352.775 149.696 359.03 147.489C361.385 146.658 363.579 146.24 363.906 146.56C364.233 146.88 365.205 149.219 366.066 151.759C366.927 154.299 368.164 156.555 368.816 156.772C369.467 156.989 370 156.861 370 156.487ZM209 154.422C209 153.331 192.5 124.063 191.867 124.032C191.176 123.997 184.773 150.106 185.334 150.667C185.683 151.016 206.703 155 208.193 155C208.637 155 209 154.74 209 154.422ZM124.407 152.383C124.844 151.244 122.331 148.268 115.761 142.14C110.668 137.389 103.901 131.06 100.726 128.075C96.093 123.722 94.709 122.901 93.726 123.922C92.747 124.938 95.115 127.697 105.5 137.638C112.65 144.482 119.69 150.96 121.145 152.034C123.504 153.776 123.858 153.813 124.407 152.383ZM194.228 149.416C191.878 149.043 189.738 148.384 189.471 147.953C188.858 146.962 192.167 133 193.014 133C193.713 133 203 149.224 203 150.444C203 150.869 201.988 150.965 200.75 150.656C199.512 150.348 196.578 149.79 194.228 149.416ZM486.466 133.75C488.943 126.079 488.712 118.838 486.077 121.55C484.981 122.678 482.979 133.156 483.651 134.244C484.379 135.422 486.02 135.133 486.466 133.75ZM51.527 132.956C52.414 131.521 49.384 127.132 46.643 125.883C45.405 125.319 43.793 123.898 43.06 122.725C41.599 120.385 41.54 120.455 49 115.674C50.925 114.441 52.644 112.434 52.82 111.216C53.198 108.593 51.022 108.202 50.35 110.771C50.095 111.745 47.774 113.658 45.193 115.021C41.313 117.071 40.447 118.043 40.195 120.638C39.935 123.314 40.56 124.325 44.445 127.508C46.95 129.561 49 131.862 49 132.62C49 134.243 50.601 134.455 51.527 132.956ZM465.32 129.609C466.074 127.644 465.197 126.995 446.61 115.774C431.881 106.882 428.907 105.708 430.299 109.337C430.567 110.036 437.472 114.597 445.643 119.473C453.815 124.35 461.458 128.954 462.629 129.705C464.449 130.873 464.84 130.859 465.32 129.609ZM390 130C390 129.45 388.537 128.993 386.75 128.985C382.379 128.964 381.32 128.129 379.796 123.505C379.02 121.149 377.437 118.976 375.85 118.086C373.374 116.699 372.923 116.785 368.971 119.401C364.631 122.273 363.055 121.895 363.015 117.973C362.989 115.329 359.98 112 357.618 112C356.37 112 354.292 113.125 353 114.5C351.708 115.875 349.83 117 348.826 117C347.822 117 347 117.675 347 118.5C347 120.83 350.525 120.271 353.938 117.399C357.791 114.157 359.596 114.786 360.958 119.846C362.366 125.074 364.402 125.686 369.238 122.335C373.773 119.192 375.865 119.789 377.501 124.694C379.171 129.698 380.847 131 385.622 131C388.03 131 390 130.55 390 130ZM164.58 128.855C165.724 128.3 167.437 126.531 168.386 124.923C169.336 123.315 170.763 122 171.557 122C172.35 122 173 121.55 173 121C173 120.45 171.912 120 170.582 120C168.896 120 167.507 121.061 166 123.5C163.274 127.911 161.417 127.934 159.598 123.58C158.812 121.7 157.243 119.665 156.111 119.059C154.362 118.123 153.466 118.488 150.155 121.479C148.011 123.415 145.779 125 145.195 125C144.61 125 142.851 123.087 141.285 120.75C138.822 117.074 137.902 116.465 134.469 116.239C130.164 115.956 127.358 117.152 128.394 118.828C128.847 119.562 129.998 119.548 132.189 118.784C135.08 117.776 135.519 117.923 137.612 120.594C144.428 129.294 145.281 129.548 150.831 124.534C153.753 121.894 154.946 121.346 155.834 122.234C156.475 122.875 157 123.9 157 124.511C157 125.801 160.738 130.032 161.789 129.932C162.18 129.895 163.436 129.411 164.58 128.855ZM23.819 125.684C26.119 123.341 28 120.905 28 120.271C28 117.584 26.048 118.382 21.618 122.881C17.773 126.784 17.153 127.882 18.269 128.808C19.346 129.703 20.528 129.038 23.819 125.684ZM309.389 125.18C310.273 123.749 302.128 114.001 300.048 114C299.249 114 297.076 115.462 295.22 117.25L291.845 120.5L289.428 117.5C288.098 115.85 287.008 113.937 287.005 113.25C286.996 110.911 284.415 111.991 280.547 115.952L276.687 119.905L272.844 115.702L269 111.5L264.911 115.979L260.822 120.458L258.161 117.358C253.884 112.376 252.567 112.472 248.556 118.055C246.6 120.777 245 123.454 245 124.002C245 126.188 247.04 124.772 250.17 120.413L253.464 115.826L257.336 120.413C259.466 122.936 261.557 125 261.983 125C262.409 125 263.303 123.683 263.97 122.072C264.637 120.462 266.083 118.33 267.183 117.334C269.137 115.566 269.275 115.629 273.124 120.012L277.066 124.5L278.783 122.054C283.734 115.002 283.576 115.044 287.564 119.749L291.165 123.999L295.681 120.298L300.198 116.597L304.43 121.476C307.203 124.673 308.913 125.95 309.389 125.18ZM420.176 115.892C418.442 112.926 414.44 105.887 411.282 100.25C408.124 94.613 405.306 90.003 405.02 90.007C404.734 90.011 403.203 95.524 401.617 102.257C400.032 108.991 398.541 115.011 398.305 115.635C397.914 116.666 401.275 117.452 419.915 120.691L423.329 121.284L420.176 115.892ZM406 115.084C404.075 114.714 402.509 113.981 402.52 113.455C402.576 110.7 405.471 99 406.096 99C406.961 99 416 114.449 416 115.928C416 116.906 415.054 116.826 406 115.084ZM188.868 107.71C190.721 103.744 193.285 98.176 194.568 95.336L196.899 90.172L190.199 87.482C186.515 86.002 181.31 83.924 178.634 82.864L173.768 80.938L174.443 83.719C175.916 89.788 184.366 114.998 184.915 114.96C185.237 114.938 187.016 111.675 188.868 107.71ZM232.083 110.218C234.45 108.102 235.32 106.343 235.71 102.88C236.168 98.813 235.879 97.932 233.011 94.665C229.248 90.379 226.78 90.762 230.405 95.07C233.751 99.046 234.363 101.481 232.812 104.644C229.64 111.114 223.438 112.533 219.028 107.799C215.317 103.817 217.584 95.75 221.5 99C222.325 99.685 223 100.865 223 101.622C223 102.38 223.675 103 224.5 103C226.769 103 226.297 99.628 223.686 97.174C220.608 94.283 218.591 94.433 215.982 97.75C214.358 99.814 213.957 101.348 214.372 103.906C215.77 112.517 225.591 116.018 232.083 110.218ZM335.422 98.905C338.569 92.253 340.95 86.616 340.712 86.379C340.087 85.754 318.544 77.139 318.269 77.405C317.805 77.854 328.461 111 329.071 111C329.417 111 332.275 105.557 335.422 98.905ZM112.342 103.75C122.688 74.281 123.001 73.018 119.65 74.304C118.364 74.798 107 106.639 107 109.751C107 110.438 107.629 111 108.399 111C109.234 111 110.822 108.081 112.342 103.75ZM379.375 104.53C378.737 99.105 378.759 99.046 382.074 97.28C386.91 94.704 391 90.477 391 88.055C391 86.9 389.2 84.003 387 81.616C384.8 79.229 383 76.833 383 76.29C383 75.748 384.787 74.498 386.97 73.513C389.154 72.529 391.708 70.875 392.645 69.84C394.233 68.085 394.238 67.721 392.713 64.523C391.812 62.635 389.766 60.413 388.165 59.585C386.564 58.757 385.014 57.162 384.721 56.04C383.971 53.172 382 53.494 382 56.486C382 58.27 383.108 59.705 385.925 61.569C388.084 62.998 390.139 64.916 390.493 65.833C391.154 67.546 390.61 68.09 384 72.326C379.141 75.44 379.132 77.746 383.962 82.463C386.183 84.632 388 87.182 388 88.13C388 90.002 383.53 94 381.438 94C379.376 94 376 99.011 376 102.07C376 105.638 377.641 110 378.984 110C379.648 110 379.787 108.043 379.375 104.53ZM181.685 96.883C180.137 91.886 179.096 87.57 179.374 87.293C180.168 86.499 192 91.374 191.999 92.495C191.998 94.203 186.132 106.001 185.292 105.985C184.857 105.977 183.233 101.881 181.685 96.883ZM48.385 105.186C48.697 104.681 48.012 103.42 46.862 102.384C40.528 96.678 44.322 87 52.892 87C58.28 87 62.414 95.752 58.544 98.964C56.71 100.485 55.161 99.554 53.868 96.153C52.952 93.743 52.767 93.665 51.85 95.304C51.112 96.622 51.272 97.766 52.443 99.554C54.548 102.766 59.268 102.884 61.443 99.777C66.153 93.053 58.854 82.867 50.455 84.442C45.937 85.29 41 91.005 41 95.387C41 100.402 46.682 107.942 48.385 105.186ZM323.5 83.167C324.155 82.511 337.156 88.107 336.773 88.88C336.604 89.221 334.962 92.65 333.125 96.5L329.785 103.5L326.404 93.572C324.544 88.112 323.237 83.429 323.5 83.167ZM81.668 97.097C80.964 90.359 81.313 90 88.582 90C91.842 90 93 89.607 93 88.5C93 87.333 91.667 87 87 87H81L80.986 83.25C80.967 78.074 80.015 75 78.431 75C77.491 75 77.007 76.852 76.798 81.25L76.5 87.5L71.25 87.802C67.473 88.02 66 88.511 66 89.552C66 90.655 67.43 91 72 91H78V97C78 102.466 78.191 103 80.142 103C82.16 103 82.249 102.656 81.668 97.097ZM151.5 98.496C162.542 94.597 165.472 81.237 157.118 72.882C150.887 66.652 141.884 66.414 135.628 72.314C123.166 84.068 135.366 104.194 151.5 98.496ZM483.826 94.686C485.022 93.413 486 91.388 486 90.186C486 87.129 482.538 84 479.155 84C473.445 84 470.918 90.983 475.189 94.961C478.064 97.64 481.142 97.542 483.826 94.686ZM139.967 94.483C133.785 91.286 131.966 81.571 136.533 76.143C141.565 70.163 149.565 69.719 154.965 75.119C160.424 80.578 159.929 88.358 153.794 93.52C150.337 96.429 144.514 96.834 139.967 94.483ZM476.588 91.709C475.256 89.598 478.058 86.424 480.445 87.341C483.019 88.328 483.549 91.125 481.453 92.658C479.266 94.257 478.046 94.019 476.588 91.709ZM202.384 90.437C198.634 85.52 198.783 81.477 202.849 77.844C204.599 76.28 207.17 75 208.561 75C212.021 75 216 79.189 216 82.832C216 86.586 213.637 88.774 211.5 87C210.675 86.315 210 85.135 210 84.378C210 83.62 209.325 83 208.5 83C206.075 83 206.78 86.682 209.635 88.927C213.09 91.646 214.428 91.542 216.927 88.365C219.411 85.208 219.526 82.911 217.423 78.478C215.227 73.852 210.08 71.489 205.495 73.002C197.439 75.66 194.43 84.792 199.589 90.923C203.373 95.42 205.855 94.988 202.384 90.437ZM31.662 80.739C33.401 73.458 34.698 67.372 34.543 67.215C33.873 66.533 11.862 62.805 11.375 63.291C10.812 63.855 27.126 93.961 28 93.972C28.275 93.975 29.923 88.021 31.662 80.739ZM21.441 76.445C18.876 71.739 17.009 67.658 17.292 67.375C17.925 66.742 29.905 69.032 30.421 69.885C30.994 70.832 27.609 85 26.81 85C26.422 85 24.006 81.15 21.441 76.445ZM446.076 68C447.8 57.672 448.738 58.83 437.128 56.963C431.332 56.032 429.593 56.041 428.996 57.007C427.706 59.094 425.77 73.173 426.66 73.996C427.533 74.804 439.201 77 442.619 77C444.302 77 444.782 75.752 446.076 68ZM431.112 72.044C430.014 72.009 429.865 70.804 430.399 66.263C430.77 63.108 431.394 60.249 431.787 59.91C432.179 59.57 434.975 59.789 438 60.396L443.5 61.5L443.149 65.451C442.956 67.624 442.425 70.382 441.97 71.58C441.22 73.55 440.731 73.678 436.821 72.922C434.444 72.463 431.876 72.068 431.112 72.044ZM77.5 71.616C79.151 70.896 81.118 69.563 81.873 68.653C82.627 67.744 83.902 67 84.706 67C86.292 67 86.015 64.838 84.358 64.286C83.799 64.1 81.628 65.309 79.533 66.974C77.439 68.638 75.38 70 74.957 70C74.535 70 73.585 68.129 72.845 65.842C70.706 59.229 68.181 58.637 61.75 63.238C59.435 64.894 56.928 63.321 55.679 59.429C54.108 54.535 52.118 53 47.345 53C44.955 53 43 53.45 43 54C43 54.55 44.38 55 46.066 55C50.486 55 53 56.661 53 59.581C53 62.543 57.097 67 59.82 67C60.871 67 62.929 66.057 64.395 64.904C67.421 62.524 70 62.988 70 65.913C70 66.999 71.012 69.022 72.25 70.407C74.328 72.734 74.73 72.826 77.5 71.616ZM303.971 70.039C306.239 68.605 304.333 67.551 300.031 67.862C296.824 68.093 295.938 67.737 294.948 65.821C292.958 61.965 289.771 59 287.618 59C286.499 59 283.889 60.656 281.816 62.68L278.048 66.359L276.582 62.85C275.775 60.92 274.42 58.764 273.571 58.059C271.306 56.179 267.373 57.56 265.38 60.934C264.43 62.542 262.786 64.084 261.726 64.361C260.666 64.639 260.096 65.346 260.458 65.933C261.672 67.897 263.829 67.03 266.852 63.364C269.992 59.554 272.466 59.323 273.675 62.727C274.666 65.519 277.156 68 278.968 68C279.88 68 281.919 66.65 283.5 65C287.383 60.947 289.537 61.171 291.937 65.877C293.025 68.009 294.646 70.034 295.539 70.377C297.909 71.286 302.276 71.111 303.971 70.039ZM339.677 63.398C340.226 61.97 337.205 58.559 325.462 47.347C311.842 34.345 309.104 32.478 309.015 36.135C309.007 36.484 315.746 43.169 323.991 50.991C336.41 62.773 339.101 64.901 339.677 63.398ZM242.87 58.377C246.013 46.38 248 37.996 248 36.73C248 35.688 244.801 34.69 236.376 33.104C229.982 31.9 224.612 31.054 224.443 31.224C224.072 31.595 239.697 60.097 240.967 61.367C241.483 61.883 242.279 60.633 242.87 58.377ZM204.791 53.389C214.73 48.32 216.442 35.553 208.215 27.865C202.834 22.838 197.574 21.997 191.274 25.157C185.144 28.232 182.772 31.662 182.247 38.209C181.778 44.042 183.926 48.41 189.176 52.298C192.825 55 200.571 55.542 204.791 53.389ZM234.583 44.099C232.045 39.479 230.091 35.576 230.241 35.426C230.6 35.066 243.906 37.571 244.424 38.096C244.644 38.318 243.888 42.002 242.744 46.282C241.6 50.563 240.335 53.713 239.931 53.282C239.528 52.852 237.121 48.72 234.583 44.099ZM192.062 50.173C188.387 48.202 185 42.947 185 39.216C185 36.004 187.457 31.572 190.615 29.088C195.795 25.013 205.454 27.11 208.483 32.967C211.99 39.75 209.35 47.633 202.585 50.579C198.379 52.41 196.066 52.32 192.062 50.173ZM399.853 49.112C400.96 48.41 400.824 47.391 399.103 43.5C397.946 40.885 397 38.328 397 37.817C397 37.306 398.928 36.035 401.285 34.992C406.448 32.708 407.014 32.2 406.344 30.453C405.935 29.388 404.669 29.614 400.346 31.526L394.867 33.949L392.446 28.474C391.115 25.463 389.596 23 389.072 23C387.023 23 386.982 25.172 388.948 29.616C390.077 32.167 391 34.57 391 34.956C391 35.342 388.75 36.712 386 38C383.25 39.288 381 40.688 381 41.112C381 42.977 383.312 42.956 387.616 41.052C390.167 39.923 392.447 39 392.682 39C392.917 39 394.205 41.475 395.542 44.5C396.88 47.525 398.093 49.993 398.237 49.985C398.382 49.976 399.109 49.584 399.853 49.112ZM422 41C422 40.45 421.616 40 421.146 40C420.676 40 419.101 38.896 417.646 37.548C413.169 33.399 414.321 26.437 419.966 23.517C423.193 21.849 425.393 22.301 428.75 25.323C431.763 28.035 431.94 34 429.008 34C427.913 34 426.455 33.1 425.768 32C424.177 29.452 423 29.442 423 31.977C423 34.56 427.289 37.36 429.952 36.515C437.988 33.965 432.455 20 423.409 20C418.438 20 413.059 25.141 412.328 30.59C411.848 34.168 412.181 35.137 414.993 38.34C417.99 41.752 422 43.275 422 41ZM294.576 37.749C297.224 35.323 298.267 33.425 298.692 30.262C299.222 26.305 298.984 25.749 295.089 21.854C291.813 18.577 290.658 17.944 289.709 18.903C288.762 19.86 288.904 20.352 290.363 21.175C296.487 24.629 297.853 30.709 293.548 35.354C290.086 39.09 286.011 39.228 282.25 35.739C279.716 33.388 279.27 28.851 281.398 27.085C282.503 26.167 283.213 26.456 284.792 28.462C287.162 31.475 288 31.656 288 29.155C288 26.791 284.928 24 282.326 24C276.243 24 275.375 33.196 280.981 38.25C285.313 42.155 289.956 41.984 294.576 37.749ZM366 33C370.135 28.865 367.434 22 361.671 22C358.501 22 355 25.172 355 28.045C355 30.685 359.315 35 361.955 35C363.08 35 364.9 34.1 366 33ZM359.571 30.429C357.615 28.472 357.598 27.579 359.487 26.011C362.464 23.54 366.46 27.536 363.989 30.513C362.421 32.402 361.528 32.385 359.571 30.429ZM161.456 31.072C161.771 30.561 160.595 28.018 158.842 25.421C155.268 20.125 154.911 21.078 162.611 15.352C164.579 13.889 165.18 12.867 164.497 12.149C163.802 11.418 162.04 12 158.75 14.047C156.141 15.671 153.847 17 153.652 17C153.458 17 151.904 14.756 150.199 12.013C148.018 8.505 146.639 7.201 145.549 7.62C143.46 8.421 143.548 8.807 147 14C148.645 16.475 149.993 18.819 149.996 19.208C149.998 19.597 147.975 21.102 145.5 22.553C143.025 24.003 141 25.571 141 26.036C141 28.153 143.44 27.974 147.036 25.595C149.193 24.168 151.375 23 151.887 23C152.398 23 154.095 25.024 155.658 27.498C158.409 31.853 160.266 32.997 161.456 31.072ZM485.166 25.557C484.049 23.663 480.348 17.138 476.943 11.057C473.537 4.97601 470.176 0 469.473 0C468.09 0 462.463 22.158 463.295 24.327C463.559 25.015 468.325 26.322 474.133 27.299C487.959 29.624 487.599 29.681 485.166 25.557ZM473 23.949C470.525 23.398 467.975 22.762 467.333 22.537C466.482 22.238 466.664 20.194 468.007 14.973C469.019 11.039 470.054 7.61299 470.307 7.35999C470.68 6.98699 473.607 11.746 480.693 24.25C481.269 25.267 478.416 25.155 473 23.949Z" fill="#494949" fill-opacity="0.3"/>
</svg>
